# xmcd CD database file
#
# Track frame offsets:
#	150
#	15831
#	35515
#	47645
#	65634
#	80743
#	98765
#	121527
#	138832
#	149923
#	167505
#	182297
#	206207
#	226144
#	241468
#	260936
#	281108
#
# Disc length: 4027 seconds
#
# Revision: 0
# Processed by: cddbd v1.4PL0 Copyright (c) Steve Scherf et al.
# Submitted via: CDex 1.50
#
DISCID=f00fb911
DTITLE=Coletânea - Versão Sertaneja
DYEAR=1900
DGENRE=Country
TTITLE0=Para sempre em mim - Zezé di Camargo e Luciano
TTITLE1=Coração espinhado - Leonardo
TTITLE2=Começar outra vez - Racyne e Rafael
TTITLE3=Só um grande amor - Renê
TTITLE4=Meu mundo é você - Marcos e Fernando
TTITLE5=Quando eu mais precisei de você - Marlon e Maycon
TTITLE6=Meu mundo é você - Max e Michel
TTITLE7=Preciso do teu prazer - Lucas e Matheus
TTITLE8=Fui eu - Rio Negro and Solimões
TTITLE9=Bolero nunca mais - Roberta Miranda
TTITLE10=Poeira no vento - Chrystian e Ranf
TTITLE11=A minha história - Marlon e Maicon
TTITLE12=Deixaria tudo - Leonardo
TTITLE13=Quero amar você - Marcos e Fernando
TTITLE14=Se é amor eu não sei - Cleiton e Camargo
TTITLE15=A minha vida - Chrystian
TTITLE16=Perdido de amor - Rhuan e Roberto
EXTD=
EXTT0=
EXTT1=
EXTT2=
EXTT3=
EXTT4=
EXTT5=
EXTT6=
EXTT7=
EXTT8=
EXTT9=
EXTT10=
EXTT11=
EXTT12=
EXTT13=
EXTT14=
EXTT15=
EXTT16=
PLAYORDER=
